{
	"asset":{
		"generator":"Khronos glTF Blender I/O v5.1.18",
		"version":"2.0"
	},
	"extensionsUsed":[
		"KHR_lights_punctual"
	],
	"extensionsRequired":[
		"KHR_lights_punctual"
	],
	"extensions":{
		"KHR_lights_punctual":{
			"lights":[
				{
					"color":[
						1,
						1,
						1
					],
					"intensity":257465.8610368968,
					"type":"point",
					"name":"Light"
				},
				{
					"color":[
						1,
						1,
						1
					],
					"intensity":796725.14689887,
					"type":"point",
					"name":"Light.001"
				},
				{
					"color":[
						1,
						1,
						1
					],
					"intensity":94631.3190318417,
					"type":"point",
					"name":"Light.002"
				}
			]
		}
	},
	"scene":0,
	"scenes":[
		{
			"name":"Scene",
			"nodes":[
				0,
				1,
				2,
				3,
				4,
				5
			]
		}
	],
	"nodes":[
		{
			"extensions":{
				"KHR_lights_punctual":{
					"light":0
				}
			},
			"name":"Light",
			"rotation":[
				-0.28416627645492554,
				0.7269423007965088,
				0.34203392267227173,
				0.5232754945755005
			],
			"translation":[
				12.658469200134277,
				5.916345596313477,
				-10.348121643066406
			]
		},
		{
			"mesh":0,
			"name":"Cube",
			"scale":[
				3,
				3,
				3
			],
			"translation":[
				-0.00903551746159792,
				5.320230484008789,
				0.0022433316335082054
			]
		},
		{
			"mesh":1,
			"name":"Plane",
			"scale":[
				3,
				3,
				3
			],
			"translation":[
				0.6256136894226074,
				-3.2492668628692627,
				-3.627835750579834
			]
		},
		{
			"extensions":{
				"KHR_lights_punctual":{
					"light":1
				}
			},
			"name":"Light.001",
			"rotation":[
				-0.28416627645492554,
				0.7269423007965088,
				0.34203392267227173,
				0.5232754945755005
			],
			"translation":[
				-10.816878318786621,
				8.041424751281738,
				-10.364347457885742
			]
		},
		{
			"mesh":2,
			"name":"Cube.002",
			"translation":[
				-0.34221580624580383,
				-3.5181169509887695,
				5.2313714027404785
			]
		},
		{
			"extensions":{
				"KHR_lights_punctual":{
					"light":2
				}
			},
			"name":"Light.002",
			"rotation":[
				-0.28416627645492554,
				0.7269423007965088,
				0.34203392267227173,
				0.5232754945755005
			],
			"translation":[
				9.316218376159668,
				3.315505027770996,
				14.549629211425781
			]
		}
	],
	"materials":[
		{
			"doubleSided":true,
			"name":"Material.004",
			"pbrMetallicRoughness":{
				"baseColorFactor":[
					0.800000011920929,
					0.800000011920929,
					0.800000011920929,
					1
				],
				"metallicFactor":0,
				"roughnessFactor":0.11818182468414307
			}
		},
		{
			"doubleSided":true,
			"name":"Material.001",
			"normalTexture":{
				"index":0
			},
			"pbrMetallicRoughness":{
				"baseColorTexture":{
					"index":1
				},
				"metallicFactor":0,
				"roughnessFactor":0.5590909123420715
			}
		},
		{
			"doubleSided":true,
			"name":"Material.002",
			"pbrMetallicRoughness":{
				"baseColorTexture":{
					"index":2
				},
				"metallicFactor":0,
				"metallicRoughnessTexture":{
					"index":3
				}
			}
		}
	],
	"meshes":[
		{
			"name":"Mesh",
			"primitives":[
				{
					"attributes":{
						"POSITION":0,
						"NORMAL":1,
						"TEXCOORD_0":2
					},
					"indices":3,
					"material":0
				}
			]
		},
		{
			"name":"Plane",
			"primitives":[
				{
					"attributes":{
						"POSITION":4,
						"NORMAL":5,
						"TEXCOORD_0":6
					},
					"indices":7,
					"material":1
				}
			]
		},
		{
			"name":"Cube.006",
			"primitives":[
				{
					"attributes":{
						"POSITION":8,
						"NORMAL":9,
						"TEXCOORD_0":10
					},
					"indices":11,
					"material":2
				}
			]
		}
	],
	"textures":[
		{
			"sampler":0,
			"source":0
		},
		{
			"sampler":0,
			"source":1
		},
		{
			"sampler":0,
			"source":2
		},
		{
			"sampler":0,
			"source":3
		}
	],
	"images":[
		{
			"mimeType":"image/png",
			"name":"pommesnormals",
			"uri":"pommesnormals.png"
		},
		{
			"mimeType":"image/png",
			"name":"pommestextur3",
			"uri":"pommestextur3.png"
		},
		{
			"mimeType":"image/png",
			"name":"schnitzelfarbe",
			"uri":"schnitzelfarbe.png"
		},
		{
			"mimeType":"image/png",
			"name":"schnitzelroughness",
			"uri":"schnitzelroughness.png"
		}
	],
	"accessors":[
		{
			"bufferView":0,
			"componentType":5126,
			"count":976,
			"max":[
				3.8906168937683105,
				-2.9294841289520264,
				3.8906173706054688
			],
			"min":[
				-3.8906168937683105,
				-3.415764331817627,
				-3.8906168937683105
			],
			"type":"VEC3"
		},
		{
			"bufferView":1,
			"componentType":5126,
			"count":976,
			"type":"VEC3"
		},
		{
			"bufferView":2,
			"componentType":5126,
			"count":976,
			"type":"VEC2"
		},
		{
			"bufferView":3,
			"componentType":5123,
			"count":5376,
			"type":"SCALAR"
		},
		{
			"bufferView":4,
			"componentType":5126,
			"count":2907,
			"max":[
				3.0183205604553223,
				0.14163760840892792,
				1.6328020095825195
			],
			"min":[
				-1.5295748710632324,
				-0.3727298378944397,
				-1.6232397556304932
			],
			"type":"VEC3"
		},
		{
			"bufferView":5,
			"componentType":5126,
			"count":2907,
			"type":"VEC3"
		},
		{
			"bufferView":6,
			"componentType":5126,
			"count":2907,
			"type":"VEC2"
		},
		{
			"bufferView":7,
			"componentType":5123,
			"count":7068,
			"type":"SCALAR"
		},
		{
			"bufferView":8,
			"componentType":5126,
			"count":851,
			"max":[
				8.28627872467041,
				1.3071333169937134,
				4.131848335266113
			],
			"min":[
				-6.501927852630615,
				-0.5036299824714661,
				-3.787978172302246
			],
			"type":"VEC3"
		},
		{
			"bufferView":9,
			"componentType":5126,
			"count":851,
			"type":"VEC3"
		},
		{
			"bufferView":10,
			"componentType":5126,
			"count":851,
			"type":"VEC2"
		},
		{
			"bufferView":11,
			"componentType":5123,
			"count":3408,
			"type":"SCALAR"
		}
	],
	"bufferViews":[
		{
			"buffer":0,
			"byteLength":11712,
			"byteOffset":0,
			"target":34962
		},
		{
			"buffer":0,
			"byteLength":11712,
			"byteOffset":11712,
			"target":34962
		},
		{
			"buffer":0,
			"byteLength":7808,
			"byteOffset":23424,
			"target":34962
		},
		{
			"buffer":0,
			"byteLength":10752,
			"byteOffset":31232,
			"target":34963
		},
		{
			"buffer":0,
			"byteLength":34884,
			"byteOffset":41984,
			"target":34962
		},
		{
			"buffer":0,
			"byteLength":34884,
			"byteOffset":76868,
			"target":34962
		},
		{
			"buffer":0,
			"byteLength":23256,
			"byteOffset":111752,
			"target":34962
		},
		{
			"buffer":0,
			"byteLength":14136,
			"byteOffset":135008,
			"target":34963
		},
		{
			"buffer":0,
			"byteLength":10212,
			"byteOffset":149144,
			"target":34962
		},
		{
			"buffer":0,
			"byteLength":10212,
			"byteOffset":159356,
			"target":34962
		},
		{
			"buffer":0,
			"byteLength":6808,
			"byteOffset":169568,
			"target":34962
		},
		{
			"buffer":0,
			"byteLength":6816,
			"byteOffset":176376,
			"target":34963
		}
	],
	"samplers":[
		{
			"magFilter":9729,
			"minFilter":9987
		}
	],
	"buffers":[
		{
			"byteLength":183192,
			"uri":"meal7.bin"
		}
	]
}
