{
	"asset":{
		"generator":"Khronos glTF Blender I/O v5.1.19",
		"version":"2.0"
	},
	"scene":0,
	"scenes":[
		{
			"name":"Scene",
			"nodes":[
				0
			]
		}
	],
	"nodes":[
		{
			"mesh":0,
			"name":"pizza.001",
			"scale":[
				24.105194091796875,
				24.105194091796875,
				24.105194091796875
			]
		}
	],
	"materials":[
		{
			"doubleSided":true,
			"name":"Material.006",
			"pbrMetallicRoughness":{
				"baseColorTexture":{
					"index":0
				},
				"metallicFactor":0
			}
		}
	],
	"meshes":[
		{
			"name":"Mesh",
			"primitives":[
				{
					"attributes":{
						"POSITION":0,
						"NORMAL":1,
						"TEXCOORD_0":2
					},
					"indices":3,
					"material":0
				}
			]
		}
	],
	"textures":[
		{
			"sampler":0,
			"source":0
		}
	],
	"images":[
		{
			"mimeType":"image/png",
			"name":"pizatextur",
			"uri":"pizatextur.png"
		}
	],
	"accessors":[
		{
			"bufferView":0,
			"componentType":5126,
			"count":4843,
			"max":[
				0.4942089319229126,
				0.047268327325582504,
				0.4922609329223633
			],
			"min":[
				-0.4956175684928894,
				-0.05431012809276581,
				-0.49082517623901367
			],
			"type":"VEC3"
		},
		{
			"bufferView":1,
			"componentType":5126,
			"count":4843,
			"type":"VEC3"
		},
		{
			"bufferView":2,
			"componentType":5126,
			"count":4843,
			"type":"VEC2"
		},
		{
			"bufferView":3,
			"componentType":5123,
			"count":23124,
			"type":"SCALAR"
		}
	],
	"bufferViews":[
		{
			"buffer":0,
			"byteLength":58116,
			"byteOffset":0,
			"target":34962
		},
		{
			"buffer":0,
			"byteLength":58116,
			"byteOffset":58116,
			"target":34962
		},
		{
			"buffer":0,
			"byteLength":38744,
			"byteOffset":116232,
			"target":34962
		},
		{
			"buffer":0,
			"byteLength":46248,
			"byteOffset":154976,
			"target":34963
		}
	],
	"samplers":[
		{
			"magFilter":9729,
			"minFilter":9987
		}
	],
	"buffers":[
		{
			"byteLength":201224,
			"uri":"pizza.bin"
		}
	]
}
